<?xml version="1.0" encoding="UTF-8" standalone="no"?>
<!-- Uploaded to: SVG Repo, www.svgrepo.com, Generator: SVG Repo Mixer Tools -->

<svg
   height="800"
   width="540.96606"
   version="1.1"
   id="Layer_1"
   viewBox="0 0 346.21828 512"
   xml:space="preserve"
   sodipodi:docname="cardback.svg"
   inkscape:version="1.2.2 (b0a8486541, 2022-12-01)"
   xmlns:inkscape="http://www.inkscape.org/namespaces/inkscape"
   xmlns:sodipodi="http://sodipodi.sourceforge.net/DTD/sodipodi-0.dtd"
   xmlns="http://www.w3.org/2000/svg"
   xmlns:svg="http://www.w3.org/2000/svg"><defs
   id="defs42" /><sodipodi:namedview
   id="namedview40"
   pagecolor="#ffffff"
   bordercolor="#000000"
   borderopacity="0.25"
   inkscape:showpageshadow="2"
   inkscape:pageopacity="0.0"
   inkscape:pagecheckerboard="0"
   inkscape:deskcolor="#d1d1d1"
   showgrid="false"
   inkscape:zoom="0.985"
   inkscape:cx="208.62944"
   inkscape:cy="9.1370558"
   inkscape:window-width="1920"
   inkscape:window-height="1011"
   inkscape:window-x="0"
   inkscape:window-y="0"
   inkscape:window-maximized="1"
   inkscape:current-layer="Layer_1" />
<path
   style="fill:#99a1af;stroke-width:1.04016;fill-opacity:1"
   d="M 308.19268,504 H 38.025584 C 22.402486,504 9.7373894,492.294 9.7373894,477.854 V 34.146 C 9.7373894,19.706 22.402486,8 38.025584,8 H 308.1916 c 15.62418,0 28.28928,11.706 28.28928,26.146 v 443.707 c 0,14.441 -12.6651,26.147 -28.2882,26.147 z"
   id="path31" />
<g
   id="g37"
   transform="matrix(1.0819321,0,0,1,-103.86548,0)">
	<path
   style="fill:#2d2b29"
   d="M 376,0 H 136 C 102.53135,0 96,8.370396 96,40 v 432 c 0,34.30219 6.7026,40 40,40 h 240 c 34.9489,0 40,-2.92877 40,-40 V 40 C 416,7.0607513 411.96231,0 376,0 Z m 24,472 c 0,13.233 -10.766,24 -24,24 H 136 c -13.234,0 -24,-10.767 -24,-24 V 40 c 0,-13.233 10.766,-24 24,-24 h 240 c 13.234,0 24,10.767 24,24 z"
   id="path33"
   sodipodi:nodetypes="ssssssssssssssssss" />
	<path
   style="fill:#2d2b29"
   d="M 376,87.998 V 48 c 0,-4.418 -3.582,-8 -8,-8 h -39.998 c -0.001,0 -0.003,0 -0.005,0 h -39.995 c -0.001,0 -0.003,0 -0.005,0 h -39.995 c -0.001,0 -0.003,0 -0.005,0 H 144 c -4.418,0 -8,3.582 -8,8 v 15.998 c 0,0.001 0,0.003 0,0.005 v 39.995 c 0,10e-4 0,0.003 0,0.005 v 39.995 c 0,0.001 0,0.003 0,0.005 v 39.995 c 0,0.001 0,0.003 0,0.005 v 39.995 c 0,0.001 0,0.003 0,0.005 v 39.995 c 0,0.001 0,0.003 0,0.005 v 39.995 c 0,0.001 0,0.003 0,0.005 v 39.995 c 0,0.001 0,0.003 0,0.005 v 39.995 c 0,0.001 0,0.003 0,0.005 v 39.995 c 0,0.001 0,0.003 0,0.005 V 464 c 0,4.418 3.582,8 8,8 h 224 c 4.418,0 8,-3.582 8,-8 v -15.998 c 0,-0.001 0,-0.003 0,-0.005 v -39.995 c 0,-0.001 0,-0.003 0,-0.005 v -39.995 c 0,-0.001 0,-0.003 0,-0.005 v -39.995 c 0,-0.001 0,-0.003 0,-0.005 v -39.995 c 0,-0.001 0,-0.003 0,-0.005 v -39.995 c 0,-0.001 0,-0.003 0,-0.005 v -39.995 c 0,-0.001 0,-0.003 0,-0.005 v -39.995 c 0,-0.001 0,-0.003 0,-0.005 v -39.995 c 0,-0.001 0,-0.003 0,-0.005 V 88.002 c 0,-10e-4 0,-0.003 0,-0.004 z M 307.313,456 152,300.687 V 283.314 L 324.687,456 Z m -40,0 L 152,340.687 V 323.314 L 284.687,456 Z m -40,0 L 152,380.687 V 363.314 L 244.687,456 Z m -40,0 L 152,420.687 V 403.314 L 204.687,456 Z M 152,203.313 l 208,208 v 17.373 l -208,-208 z m 0,-22.626 v -17.373 l 208,208 v 17.373 z m 0,-40 v -17.373 l 208,208 v 17.373 z m 0,-40 V 83.313 l 208,208 v 17.373 z M 204.687,56 360,211.313 v 17.373 L 187.313,56 Z m 22.626,0 h 17.373 L 360,171.313 v 17.373 z m 40,0 h 17.373 L 360,131.313 v 17.373 z m 40,0 h 17.373 L 360,91.313 v 17.373 z M 360,68.687 347.313,56 H 360 Z M 164.687,56 360,251.313 v 17.373 l -208,-208 V 56 Z M 152,443.313 164.687,456 H 152 Z M 347.313,456 152,260.687 v -17.373 l 208,208 V 456 Z"
   id="path35" />
</g>
</svg>
